<svg width="180" height="180" viewBox="0 0 180 180" fill="none" xmlns="http://www.w3.org/2000/svg">
  <rect width="180" height="180" rx="40" fill="#F8FBFF"/>
  <g opacity="0.92">
    <path d="M36 104C48 75 71 56 94 52C121 47 144 61 154 88C148 72 130 59 112 58C83 57 57 76 46 103L36 104Z" fill="#FFD84D"/>
    <path d="M28 92C44 65 72 48 102 46C129 45 151 57 163 80C149 62 128 55 105 58C77 61 50 77 35 98L28 92Z" fill="#FF5D73"/>
    <path d="M33 120C43 136 61 145 82 145C109 145 136 130 149 106C139 125 116 139 91 140C68 141 48 135 33 120Z" fill="#34D3C6"/>
    <path d="M22 102C29 69 56 42 93 38C121 35 147 48 161 71C144 49 120 42 96 45C64 49 38 70 29 102H22Z" fill="#0F5FCB"/>
  </g>
  <ellipse cx="91" cy="92" rx="60" ry="26" fill="#0F5FCB"/>
  <ellipse cx="91" cy="92" rx="58" ry="24" stroke="#0A3A7B" stroke-opacity="0.45" stroke-width="2"/>
  <path d="M61 77H72.5V82H68.5V108H61V82H57V77H61Z" fill="#FFF8E8"/>
  <path d="M78 77H85.5C92.5 77 96.5 80.5 96.5 86.5C96.5 91 94.3 94.2 90.2 95.3L97.5 108H88.8L82.6 96.5H85.5C88.6 96.5 90 95 90 92.2C90 89.2 88.3 87.9 84.8 87.9H85.5V108H78V77Z" fill="#FFF8E8"/>
  <path d="M102 77H110.5C118 77 123 82.9 123 92.3C123 102.1 117.7 108 109.7 108H102V77ZM109.2 101.6C113.3 101.6 115.7 98.4 115.7 92.4C115.7 86.7 113.2 83.4 109.1 83.4H109.5V101.6H109.2Z" fill="#FFF8E8"/>
  <circle cx="148" cy="120" r="11" fill="#E5223C"/>
  <circle cx="148" cy="120" r="6" fill="#FFF8E8" opacity="0.92"/>
</svg>
